<svg id="Layer_1" data-name="Layer 1" xmlns="http://www.w3.org/2000/svg" viewBox="0 0 585.2 173.95"><defs><style>.cls-1{fill:#fff;}</style></defs><path class="cls-1" d="M341.64,340.44c-9.88,9.72-24.5,8.53-30.9-3.3-3.24-6-4.44-13.11-6.64-20-.63.68-1.91,2-3.13,3.36-4.86,5.44-9.3,11.35-14.69,16.19-4.17,3.73-9.25,7.71-14.45,8.66-5.57,1-13.23.4-17.21-2.87-3.14-2.58-4.18-11.06-2.48-15.52,3.74-9.83,9.54-18.92,15-28,3.86-6.46,8.9-12.24,12.69-18.74,2.93-5,1.2-8.57-5.17-8.73-.52,0-1,0-1.56,0-15.72-.5-15.42-.4-20.5,14.38-3.25,9.44-7.51,18.54-11.32,27.79l-1.85-.78c3.85-9.76,7.83-19.47,11.52-29.3,2-5.35,4-10.88-1.45-15.71a3.79,3.79,0,0,1-1.11-2.85,55.68,55.68,0,0,1,2.26-11c.27-.76,5.16-.9,5.29-.49a55.31,55.31,0,0,1,2,10.23c.17,1.45-.37,3-.63,4.78,7.09,0,13.8,0,20.51,0,16.62.09,20,5.63,11.17,19.92-7,11.31-15.17,21.84-22.28,33.06a46.6,46.6,0,0,0-5.63,14.36c-1.41,6.14,1.93,8.89,8,7.53a24.11,24.11,0,0,0,8.61-3.44c13.18-9.38,23.45-21.13,30-36.23a131.81,131.81,0,0,1,12.75-23.09c5.87-8.42,14.59-13,24.88-14.7,11.76-1.9,20.76,3.63,23.31,15.33,2.84,13-1.59,24.68-7.36,36-1,2-2.19,3.94-3.35,6,9.77,3,15.31,1.4,20.13-7.1,6.54-11.54,13.1-23.21,18.08-35.47,4-9.82,9.09-16,21.06-14.53l-7.93,16.22-.81-1.07c4.16-3.32,8.17-6.83,12.51-9.88,3.35-2.35,6.9-5,10.75-6,7.66-1.92,12.16,2.29,11.45,10.18-.37,4.07-1.57,8.06-2.63,13.2,4.28-4.94,7.7-9.18,11.44-13.11,2.13-2.25,4.52-5.08,7.26-5.75,5.2-1.27,11.47-3,16-1.2,5.93,2.36,5,9.54,3.05,14.59-3,7.71-7.12,15-11,22.33-4.34,8.29-9.45,16.22-13.14,24.78-1.37,3.19-1.08,9.3,1,11.2,2.32,2.08,8.43,2.34,11.45.72,5.57-3,11.15-7.14,14.79-12.21a141.29,141.29,0,0,0,14-25.15c6-13.53,14.64-24.6,27.13-32.51a44,44,0,0,1,10.61-4.81c12.85-3.94,19.59,1.13,19.78,14.53a8.91,8.91,0,0,0,1.33,5.27c1.58-3,3.18-6,4.73-9.09,1.65-3.25,3.26-6.52,4.47-8.95l17.15-5.32c-.7,1.66-1.39,3.6-2.3,5.43-7.87,15.89-16,31.62-23.52,47.69A71.63,71.63,0,0,0,549.39,336c-1.22,7.52,2.29,10,9,6.18a42.47,42.47,0,0,0,12.37-10.45c6.68-8.52,12.51-17.71,19.21-26.23-7.55,15.19-14.74,30.84-30.72,39.39-9.58,5.13-17.74.41-19.13-10.48-.54-4.27-.09-8.67-.09-14.56-4.07,5.55-7.19,9.95-10.49,14.19a43.63,43.63,0,0,1-5.36,5.68c-5.89,5.3-12.67,9.14-20.59,5.9-7.61-3.11-9.63-10.42-10.41-18-.21-2.07-.34-4.15-.68-8.22-2.64,4.15-4.32,7.08-6.28,9.82-7.27,10.09-15.79,18.14-29.49,17.32-9.11-.54-14.93-5.77-13.1-14.59,2-9.49,6.22-18.6,10.2-27.55,3.6-8.07,8.49-15.56,12.14-23.6,1.07-2.37-.12-5.76-.27-8.69-2.62.71-6,.63-7.72,2.26-5.11,4.76-10.46,9.65-14.14,15.48-9.58,15.2-18.46,30.85-27.28,46.51-2.61,4.65-4.14,9.48-11.2,7.25-1.87-.59-4.38.81-6.94,1.37,11.79-25.25,30.1-47.11,34.75-75l-3-2.46c-4.67,4-10.6,7.17-13.8,12.12-12,18.57-23.12,37.71-34.52,56.68-1.46,2.43-2.59,5.08-3.14,6.17l-16,4.37,10.38-19.44c-5.47-.32-10.45-.87-15.41-.73-1.58,0-3.25,1.76-4.63,3-4,3.57-7.81,7.28-11.7,10.94a57.26,57.26,0,0,1,3.73-4.69c5.71-5.9,9.95-11.16,6.08-20.91-4-10.11.08-24.58,15.47-26.09-.26-2.53-.3-5.11-.81-7.59C363.34,269,355.17,265.07,344,271.13a32.84,32.84,0,0,0-8.53,6.7c-11.78,13.08-18.19,28.44-18,46.17.22,18.84,6.08,22.81,23.36,16.34C341.09,340.26,341.38,340.4,341.64,340.44Zm162.14-6.58c.76,2,1.47,8,3.82,8.76,3.37,1,8-1.59,11.94-3.18a11.24,11.24,0,0,0,4.55-4.2c7.73-11.71,16.21-23.06,22.57-35.48,3.22-6.29,3.58-14.61,3.34-21.94-.24-7.68-5.68-10.17-12.74-7.07a22.61,22.61,0,0,0-6.48,4.28C514.6,290.46,506.09,309.55,503.78,333.86Z" transform="translate(-4.8 -197.91)"/><path class="cls-1" d="M225.58,225.93c-20.8-6.56-41-14.31-61.81-19.08-18.39-4.21-35.69,1.57-49.94,14.31-11.15,10-13.93,24.81-8,38.65,5.84,13.6,17.71,20.1,35.11,19.24,13.55-.67,27.7-10.45,30.53-22.91,1.26-5.57-1-11.94-1.57-17.06,5.12,1.67,8.5,7.56,6.53,15.93-3.77,15.94-15.22,23.88-30.35,26.64-16,2.91-30.83.15-42-12.77-10.38-11.95-11.77-25.83-6.62-40.37,5.94-16.77,26.27-30,46.33-30.56,29.13-.86,55,10,80.07,23,4.59,2.38,7.79,2.89,12.59.12,9-5.2,18.93-7.09,29.32-4.38,8.5,2.21,12.82,7.86,11.33,15.1-1.67,8.1-8.44,10.28-14.38,8.06-12.28-4.6-16.64,2.81-20.81,11.35-4.68,9.6-9.8,19.08-13.37,29.09-9.92,27.83-28.61,47.37-54.64,60.46a21.64,21.64,0,0,0-2.62,1.64c-.16.12-.15.48-.2.64,10.86,2.18,21.67,4.7,32.63,6.22,2.07.28,4.69-3.4,7.09-5.27,3.34,4.4.89,11.2-6.8,11.69-5.52.34-11.31-.89-16.73-2.33-9-2.38-17.72-5.5-27.2-8.51,19.37-14.28,34.74-33.1,47.23-56.22-11.76,0-22.54-.3-33.28.25-2.1.1-4.41,3.18-6,5.35-14.94,20.46-30,40.79-50.37,56.37C95.56,367.47,71,375.92,43.09,369.94c-28.08-6-44-33.43-36.41-61.81,7-26.27,36-42.67,61.89-35,17.36,5.17,27,18.71,24.76,34.85-2.75,20-25.11,31.66-43.8,22.87,5.94-.32,12,.09,17.8-1.11,14.62-3.07,22.15-14.44,20.8-30.16A27.63,27.63,0,0,0,62.52,274.5c-27.75-1.91-47.69,14.86-49.33,41.5-1.74,28.33,16.94,48.31,46.49,49.35,15.56.54,29.73-4.39,42.95-12.25,21.2-12.61,37.56-30.41,52.91-49.32s30.78-38.12,46.82-56.62C208.93,239.58,217.22,233.47,225.58,225.93Zm19,8.59c-18.8-8.22-13.93-9.44-27.82,3.54-14.55,13.6-26.94,29.52-40.22,44.46-.55.62-.56,1.7-1,3.05,10.51,0,20.39.12,30.26-.1,1.78,0,4.24-1,5.19-2.31C222.32,267,233.43,250.73,244.56,234.52Zm-12-10.29c12.6,8.78,12.6,8.78,26.31-.51l-6.75,12.7c5,.29,9,1.39,12.49.46,3-.81,7-3.54,7.59-6.12s-1.33-7.57-3.7-9.12a20,20,0,0,0-12.41-3C248.72,219.47,241.57,222,232.53,224.23Z" transform="translate(-4.8 -197.91)"/></svg>